<svg width="67" height="121" viewBox="0 0 67 121" fill="none" xmlns="http://www.w3.org/2000/svg">
<path d="M8.42969 62.9863H29.32H44.8295H58.1233L54.6416 114.579L49.2608 118.061L41.3478 119.96H22.9896L16.6592 117.744L11.9114 114.579L10.6453 89.2575L8.42969 62.9863Z" fill="#F9D1BF"/>
<ellipse cx="33.1183" cy="62.672" rx="24.6886" ry="5.69736" fill="#CDAA9B"/>
<path d="M65.4033 33.2348C65.4033 33.4657 65.2903 33.7614 64.923 34.1238C64.5544 34.4875 63.9771 34.8688 63.1768 35.2508C61.5793 36.0135 59.2271 36.7172 56.2696 37.3144C50.365 38.5067 42.1794 39.2487 33.1183 39.2487C24.0572 39.2487 15.8716 38.5067 9.96698 37.3144C7.00945 36.7172 4.65728 36.0135 3.05979 35.2508C2.25952 34.8688 1.68222 34.4875 1.31361 34.1238C0.94632 33.7614 0.833235 33.4657 0.833235 33.2348C0.833235 33.0039 0.94632 32.7083 1.31361 32.3458C1.68222 31.9821 2.25952 31.6009 3.05979 31.2188C4.65728 30.4562 7.00945 29.7524 9.96698 29.1552C15.8716 27.963 24.0572 27.2209 33.1183 27.2209C42.1794 27.2209 50.365 27.963 56.2696 29.1552C59.2271 29.7524 61.5793 30.4562 63.1768 31.2188C63.9771 31.6009 64.5544 31.9821 64.923 32.3458C65.2903 32.7083 65.4033 33.0039 65.4033 33.2348Z" fill="white" stroke="black" stroke-width="1.26608"/>
<path d="M32.9229 2.86162L31.0388 2.99619C29.7137 3.09084 28.687 4.19345 28.687 5.52192V30.0308C28.687 31.0185 29.2613 31.916 30.1581 32.3299L31.8303 33.1017C32.4514 33.3884 33.162 33.4116 33.8004 33.166L35.2934 32.5918C36.2713 32.2157 36.9165 31.2762 36.9165 30.2284V5.4941C36.9165 4.17715 35.9071 3.08005 34.5947 2.97069L33.3136 2.86393C33.1836 2.8531 33.053 2.85232 32.9229 2.86162Z" fill="#1D5639"/>
<path d="M36.9164 2.53216C36.9164 2.88379 36.6387 3.34929 35.8609 3.7641C35.1104 4.16441 34.0298 4.43128 32.8016 4.43128C31.5734 4.43128 30.4929 4.16441 29.7423 3.7641C28.9646 3.34929 28.6869 2.88379 28.6869 2.53216C28.6869 2.18053 28.9646 1.71503 29.7423 1.30022C30.4929 0.899908 31.5734 0.63304 32.8016 0.63304C34.0298 0.63304 35.1104 0.899908 35.8609 1.30022C36.6387 1.71503 36.9164 2.18053 36.9164 2.53216Z" fill="#0F2E1E" stroke="black" stroke-width="1.26608"/>
<path d="M36.9163 31.0176C36.9163 32.4161 35.074 33.5497 32.8015 33.5497C30.529 33.5497 28.6868 32.4161 28.6868 31.0176" stroke="black" stroke-width="1.26608"/>
<path d="M28.6868 2.53125L28.6868 31.6511" stroke="black" stroke-width="1.26608"/>
<path d="M36.9164 2.53125V31.0181" stroke="black" stroke-width="1.26608"/>
<path d="M37.244 60.9893V44.787C37.244 44.2725 36.841 43.8481 36.3272 43.8216L35.4103 43.7743L33.5767 43.6797L31.4375 43.7743L30.3678 43.8216C29.7696 43.8481 29.2982 44.3408 29.2982 44.9396V60.9357C29.2982 61.0374 29.2689 61.137 29.2137 61.2225C28.9865 61.5742 29.239 62.0379 29.6577 62.0379H36.6574C37.0981 62.0379 37.4108 61.6082 37.2754 61.1889C37.2546 61.1244 37.244 61.0571 37.244 60.9893Z" fill="#1D5639"/>
<path d="M29.3201 44.3125L29.3201 62.0376" stroke="black" stroke-width="1.26608"/>
<path d="M37.5496 44.3125V62.0376" stroke="black" stroke-width="1.26608"/>
<path d="M62.8711 39.9902C62.8711 42.1836 49.4086 43.9617 32.8017 43.9617C16.1948 43.9617 2.7323 42.1836 2.7323 39.9902" stroke="black" stroke-width="1.13469"/>
<path d="M2.7323 35.4492L2.7323 39.988" stroke="black" stroke-width="1.13469"/>
<path d="M62.8711 35.4492L62.8711 39.988" stroke="black" stroke-width="1.13469"/>
<path d="M54.6417 113.314C54.6417 117.16 45.0054 120.278 33.1183 120.278C21.2313 120.278 11.595 117.16 11.595 113.314" stroke="black" stroke-width="1.26608"/>
<path d="M6.21411 41.7812L11.595 113.631" stroke="black" stroke-width="1.26608"/>
<circle cx="18.8748" cy="95.2727" r="3.48172" fill="#2C2B2B"/>
<circle cx="34.0679" cy="97.1712" r="3.48172" fill="#2C2B2B"/>
<circle cx="45.4626" cy="99.7044" r="3.48172" fill="#2C2B2B"/>
<circle cx="49.8937" cy="92.1087" r="3.48172" fill="#2C2B2B"/>
<circle cx="17.6088" cy="104.136" r="3.48172" fill="#2C2B2B"/>
<circle cx="26.4713" cy="103.501" r="3.48172" fill="#2C2B2B"/>
<circle cx="49.8937" cy="107.933" r="3.48172" fill="#2C2B2B"/>
<circle cx="34.7008" cy="106.034" r="3.48172" fill="#2C2B2B"/>
<circle cx="42.2974" cy="114.265" r="3.48172" fill="#2C2B2B"/>
<circle cx="22.6731" cy="111.099" r="3.48172" fill="#2C2B2B"/>
<circle cx="42.2974" cy="106.667" r="3.48172" fill="#2C2B2B"/>
<circle cx="31.5358" cy="113.63" r="3.48172" fill="#2C2B2B"/>
<path d="M60.0223 41.7812L54.6415 113.631" stroke="black" stroke-width="1.26608"/>
</svg>
