<svg width="64" height="119" viewBox="0 0 64 119" fill="none" xmlns="http://www.w3.org/2000/svg">
<path d="M58.1371 41.2188L52.9078 111.045" stroke="black" stroke-width="1.23042"/>
<path d="M7.99768 61.8281H28.2995H43.3721H56.2915L52.9079 111.968L47.6786 115.351L39.9885 117.197H22.1475L15.9954 115.044L11.3813 111.968L10.1509 87.3593L7.99768 61.8281Z" fill="#CCBAC5"/>
<ellipse cx="31.9908" cy="61.5212" rx="23.9931" ry="5.53687" fill="#BFACB7"/>
<path d="M63.3664 32.9148C63.3664 33.1392 63.2565 33.4265 62.8996 33.7787C62.5414 34.1322 61.9803 34.5027 61.2026 34.874C59.6501 35.6151 57.3642 36.299 54.49 36.8794C48.7517 38.0381 40.7967 38.7592 31.9908 38.7592C23.1849 38.7592 15.23 38.0381 9.49166 36.8794C6.61744 36.299 4.33154 35.6151 2.77904 34.874C2.00132 34.5027 1.44028 34.1322 1.08205 33.7787C0.725107 33.4265 0.615208 33.1392 0.615208 32.9148C0.615208 32.6904 0.725107 32.403 1.08205 32.0508C1.44028 31.6973 2.00132 31.3268 2.77904 30.9555C4.33154 30.2144 6.61744 29.5305 9.49166 28.9501C15.23 27.7914 23.1849 27.0703 31.9908 27.0703C40.7967 27.0703 48.7517 27.7914 54.49 28.9501C57.3642 29.5305 59.6501 30.2144 61.2026 30.9555C61.9803 31.3268 62.5414 31.6973 62.8996 32.0508C63.2565 32.403 63.3664 32.6904 63.3664 32.9148Z" fill="white" stroke="black" stroke-width="1.23042"/>
<path d="M31.8009 3.39638L29.9698 3.52717C28.6821 3.61915 27.6843 4.6907 27.6843 5.98174V29.8003C27.6843 30.7601 28.2424 31.6324 29.1139 32.0346L30.7391 32.7847C31.3426 33.0632 32.0332 33.0858 32.6537 32.8471L34.1046 32.2891C35.0549 31.9236 35.682 31.0105 35.682 29.9923V5.95471C35.682 4.67486 34.701 3.60866 33.4256 3.50238L32.1805 3.39863C32.0542 3.3881 31.9273 3.38735 31.8009 3.39638Z" fill="#1D5639"/>
<path d="M35.6818 3.07607C35.6818 3.41779 35.4119 3.87018 34.656 4.27331C33.9266 4.66234 32.8765 4.92169 31.6829 4.92169C30.4893 4.92169 29.4392 4.66234 28.7098 4.27331C27.9539 3.87018 27.6841 3.41779 27.6841 3.07607C27.6841 2.73434 27.9539 2.28196 28.7098 1.87883C29.4392 1.48979 30.4893 1.23044 31.6829 1.23044C32.8765 1.23044 33.9266 1.48979 34.656 1.87883C35.4119 2.28196 35.6818 2.73434 35.6818 3.07607Z" fill="#0F2E1E" stroke="black" stroke-width="1.23042"/>
<path d="M35.6819 30.7598C35.6819 32.1188 33.8916 33.2206 31.6831 33.2206C29.4746 33.2206 27.6842 32.1188 27.6842 30.7598" stroke="black" stroke-width="1.23042"/>
<path d="M27.6842 3.07617L27.6842 31.3757" stroke="black" stroke-width="1.23042"/>
<path d="M35.6819 3.07617V30.7605" stroke="black" stroke-width="1.23042"/>
<path d="M36.2972 65.7094V44.2367C36.2972 43.7162 35.8938 43.2848 35.3744 43.25L34.4516 43.1881L32.606 43.0645L30.4528 43.1881L29.3761 43.25C28.7718 43.2847 28.2995 43.7849 28.2995 44.3902V65.6453C28.2995 65.7607 28.2728 65.8746 28.2214 65.978C27.9744 66.4745 28.3355 67.0576 28.8901 67.0576H35.4418C36.0328 67.0576 36.4668 66.5025 36.3241 65.9289C36.3063 65.8571 36.2972 65.7834 36.2972 65.7094Z" fill="#1D5639"/>
<path d="M28.2997 43.6797L28.2997 67.0576" stroke="black" stroke-width="1.23042"/>
<path d="M36.2974 43.6797V67.0576" stroke="black" stroke-width="1.23042"/>
<path d="M60.9057 39.4805C60.9057 41.612 47.8224 43.34 31.6833 43.34C15.5442 43.34 2.46094 41.612 2.46094 39.4805" stroke="black" stroke-width="1.10273"/>
<path d="M2.46094 35.0684L2.46094 39.4793" stroke="black" stroke-width="1.10273"/>
<path d="M60.9056 35.0684L60.9056 39.4793" stroke="black" stroke-width="1.10273"/>
<path d="M52.908 110.736C52.908 114.474 43.5431 117.504 31.9909 117.504C20.4387 117.504 11.0739 114.474 11.0739 110.736" stroke="black" stroke-width="1.23042"/>
<path d="M5.8446 41.2188L11.0739 111.045" stroke="black" stroke-width="1.23042"/>
<circle cx="18.1487" cy="93.204" r="3.38364" fill="#4B3D3D"/>
<circle cx="32.9137" cy="95.0497" r="3.38364" fill="#4B3D3D"/>
<circle cx="43.9875" cy="97.5106" r="3.38364" fill="#4B3D3D"/>
<circle cx="48.2938" cy="90.1258" r="3.38364" fill="#4B3D3D"/>
<circle cx="16.9183" cy="101.817" r="3.38364" fill="#4B3D3D"/>
<circle cx="25.5311" cy="101.202" r="3.38364" fill="#4B3D3D"/>
<circle cx="48.2938" cy="105.509" r="3.38364" fill="#4B3D3D"/>
<circle cx="33.5288" cy="103.663" r="3.38364" fill="#4B3D3D"/>
<circle cx="40.9114" cy="111.661" r="3.38364" fill="#4B3D3D"/>
<circle cx="21.8398" cy="108.583" r="3.38364" fill="#4B3D3D"/>
<circle cx="40.9114" cy="104.276" r="3.38364" fill="#4B3D3D"/>
<circle cx="30.4529" cy="111.044" r="3.38364" fill="#4B3D3D"/>
<path d="M7.99768 61.8281H28.2995H43.3721H56.2915L52.9079 111.968L47.6786 115.351L39.9885 117.197H22.1475L15.9954 115.044L11.3813 111.968L10.1509 87.3593L7.99768 61.8281Z" fill="#E5BFD6"/>
<ellipse cx="31.9908" cy="61.5212" rx="23.9931" ry="5.53687" fill="#C7A3B9"/>
<path d="M63.3664 32.9148C63.3664 33.1392 63.2565 33.4265 62.8996 33.7787C62.5414 34.1322 61.9803 34.5027 61.2026 34.874C59.6501 35.6151 57.3642 36.299 54.49 36.8794C48.7517 38.0381 40.7967 38.7592 31.9908 38.7592C23.1849 38.7592 15.23 38.0381 9.49166 36.8794C6.61744 36.299 4.33154 35.6151 2.77904 34.874C2.00132 34.5027 1.44028 34.1322 1.08205 33.7787C0.725107 33.4265 0.615208 33.1392 0.615208 32.9148C0.615208 32.6904 0.725107 32.403 1.08205 32.0508C1.44028 31.6973 2.00132 31.3268 2.77904 30.9555C4.33154 30.2144 6.61744 29.5305 9.49166 28.9501C15.23 27.7914 23.1849 27.0703 31.9908 27.0703C40.7967 27.0703 48.7517 27.7914 54.49 28.9501C57.3642 29.5305 59.6501 30.2144 61.2026 30.9555C61.9803 31.3268 62.5414 31.6973 62.8996 32.0508C63.2565 32.403 63.3664 32.6904 63.3664 32.9148Z" fill="white" stroke="black" stroke-width="1.23042"/>
<path d="M31.8009 3.39638L29.9698 3.52717C28.6821 3.61915 27.6843 4.6907 27.6843 5.98174V29.8003C27.6843 30.7601 28.2424 31.6324 29.1139 32.0346L30.7391 32.7847C31.3426 33.0632 32.0332 33.0858 32.6537 32.8471L34.1046 32.2891C35.0549 31.9236 35.682 31.0105 35.682 29.9923V5.95471C35.682 4.67486 34.701 3.60866 33.4256 3.50238L32.1805 3.39863C32.0542 3.3881 31.9273 3.38735 31.8009 3.39638Z" fill="#1D5639"/>
<path d="M35.6818 3.07607C35.6818 3.41779 35.4119 3.87018 34.656 4.27331C33.9266 4.66234 32.8765 4.92169 31.6829 4.92169C30.4893 4.92169 29.4392 4.66234 28.7098 4.27331C27.9539 3.87018 27.6841 3.41779 27.6841 3.07607C27.6841 2.73434 27.9539 2.28196 28.7098 1.87883C29.4392 1.48979 30.4893 1.23044 31.6829 1.23044C32.8765 1.23044 33.9266 1.48979 34.656 1.87883C35.4119 2.28196 35.6818 2.73434 35.6818 3.07607Z" fill="#0F2E1E" stroke="black" stroke-width="1.23042"/>
<path d="M35.6819 30.7598C35.6819 32.1188 33.8916 33.2206 31.6831 33.2206C29.4746 33.2206 27.6842 32.1188 27.6842 30.7598" stroke="black" stroke-width="1.23042"/>
<path d="M27.6842 3.07617L27.6842 31.3757" stroke="black" stroke-width="1.23042"/>
<path d="M35.6819 3.07617V30.7605" stroke="black" stroke-width="1.23042"/>
<path d="M36.0002 61.0513V44.1534C36.0002 43.6528 35.6091 43.2395 35.1093 43.2119L34.2183 43.1628L32.4363 43.0645L30.3573 43.1628L29.3178 43.2119C28.7359 43.2394 28.2783 43.7192 28.2783 44.3017V60.9968C28.2783 61.0989 28.2504 61.199 28.1976 61.2864C27.9721 61.6596 28.2409 62.1359 28.6769 62.1359H35.3718C35.8327 62.1359 36.1629 61.6912 36.0296 61.25C36.0101 61.1856 36.0002 61.1186 36.0002 61.0513Z" fill="#1D5639"/>
<path d="M28.2997 43.6797L28.2997 62.1359" stroke="black" stroke-width="1.23042"/>
<path d="M36.2974 43.6797V62.1359" stroke="black" stroke-width="1.23042"/>
<path d="M60.9057 39.4805C60.9057 41.612 47.8224 43.34 31.6833 43.34C15.5442 43.34 2.46094 41.612 2.46094 39.4805" stroke="black" stroke-width="1.10273"/>
<path d="M2.46094 35.0684L2.46094 39.4793" stroke="black" stroke-width="1.10273"/>
<path d="M60.9056 35.0684L60.9056 39.4793" stroke="black" stroke-width="1.10273"/>
<path d="M52.908 110.736C52.908 114.474 43.5431 117.504 31.9909 117.504C20.4387 117.504 11.0739 114.474 11.0739 110.736" stroke="black" stroke-width="1.23042"/>
<path d="M5.8446 41.2188L11.0739 111.045" stroke="black" stroke-width="1.23042"/>
<circle cx="18.1487" cy="93.204" r="3.38364" fill="#4B3D3D"/>
<circle cx="32.9137" cy="95.0497" r="3.38364" fill="#4B3D3D"/>
<circle cx="43.9875" cy="97.5106" r="3.38364" fill="#4B3D3D"/>
<circle cx="48.2938" cy="90.1258" r="3.38364" fill="#4B3D3D"/>
<circle cx="16.9183" cy="101.817" r="3.38364" fill="#4B3D3D"/>
<circle cx="25.5311" cy="101.202" r="3.38364" fill="#4B3D3D"/>
<circle cx="48.2938" cy="105.509" r="3.38364" fill="#4B3D3D"/>
<circle cx="33.5288" cy="103.663" r="3.38364" fill="#4B3D3D"/>
<circle cx="40.9114" cy="111.661" r="3.38364" fill="#4B3D3D"/>
<circle cx="21.8398" cy="108.583" r="3.38364" fill="#4B3D3D"/>
<circle cx="40.9114" cy="104.276" r="3.38364" fill="#4B3D3D"/>
<circle cx="30.4529" cy="111.044" r="3.38364" fill="#4B3D3D"/>
<path d="M58.1371 41.2188L52.9078 111.045" stroke="black" stroke-width="1.23042"/>
</svg>
