<svg width="66" height="119" viewBox="0 0 66 119" fill="none" xmlns="http://www.w3.org/2000/svg">
<path d="M8.80164 61.7148H29.2692H44.4648H57.4896L54.0784 112.264L48.8064 115.675L41.0536 117.535H23.0669L16.8646 115.365L12.2129 112.264L10.9724 87.4544L8.80164 61.7148Z" fill="#86A96F"/>
<ellipse cx="32.9908" cy="61.4043" rx="24.1889" ry="5.58206" fill="#6A8657"/>
<path d="M64.6221 32.5612C64.6221 32.7875 64.5113 33.0771 64.1515 33.4322C63.7903 33.7886 63.2247 34.1621 62.4406 34.5364C60.8755 35.2837 58.5709 35.9731 55.6732 36.5582C49.8881 37.7264 41.8682 38.4534 32.9904 38.4534C24.1127 38.4534 16.0928 37.7264 10.3077 36.5582C7.40998 35.9731 5.10542 35.2837 3.54025 34.5364C2.75618 34.1621 2.19056 33.7886 1.82941 33.4322C1.46955 33.0771 1.35875 32.7875 1.35875 32.5612C1.35875 32.335 1.46955 32.0453 1.82941 31.6902C2.19056 31.3339 2.75618 30.9603 3.54025 30.586C5.10542 29.8388 7.40998 29.1493 10.3077 28.5642C16.0928 27.3961 24.1127 26.6691 32.9904 26.6691C41.8682 26.6691 49.8881 27.3961 55.6732 28.5642C58.5709 29.1493 60.8755 29.8388 62.4406 30.586C63.2247 30.9603 63.7903 31.3339 64.1515 31.6902C64.5113 32.0453 64.6221 32.335 64.6221 32.5612Z" fill="white" stroke="black" stroke-width="1.24046"/>
<path d="M32.799 2.80665L30.9531 2.9385C29.6548 3.03123 28.6489 4.11153 28.6489 5.41311V29.426C28.6489 30.3937 29.2116 31.2731 30.0902 31.6786L31.7286 32.4348C32.3371 32.7156 33.0333 32.7384 33.6588 32.4978L35.1216 31.9352C36.0797 31.5667 36.7119 30.6462 36.7119 29.6196V5.38586C36.7119 4.09556 35.7229 3.02066 34.437 2.91351L33.1818 2.80891C33.0545 2.7983 32.9265 2.79754 32.799 2.80665Z" fill="#1D5639"/>
<path d="M36.7118 2.48092C36.7118 2.82543 36.4397 3.28151 35.6777 3.68793C34.9423 4.08014 33.8836 4.34161 32.6803 4.34161C31.4769 4.34161 30.4183 4.08014 29.6829 3.68793C28.9209 3.28151 28.6488 2.82543 28.6488 2.48092C28.6488 2.1364 28.9209 1.68033 29.6829 1.27391C30.4183 0.881697 31.4769 0.620229 32.6803 0.620229C33.8836 0.620229 34.9423 0.881697 35.6777 1.27391C36.4397 1.68033 36.7118 2.1364 36.7118 2.48092Z" fill="#0F2E1E" stroke="black" stroke-width="1.24046"/>
<path d="M36.7118 30.3906C36.7118 31.7608 34.9068 32.8715 32.6803 32.8715C30.4538 32.8715 28.6488 31.7608 28.6488 30.3906" stroke="black" stroke-width="1.24046"/>
<path d="M28.6488 2.48242L28.6488 31.013" stroke="black" stroke-width="1.24046"/>
<path d="M36.7115 2.48047V30.3908" stroke="black" stroke-width="1.24046"/>
<path d="M37.0327 59.7562V43.8818C37.0327 43.3777 36.6379 42.9619 36.1345 42.9359L35.2362 42.8896L33.4397 42.7969L31.3437 42.8896L30.2957 42.9359C29.7096 42.9619 29.2478 43.4446 29.2478 44.0313V59.7037C29.2478 59.8034 29.219 59.9009 29.1649 59.9847C28.9423 60.3293 29.1897 60.7835 29.5999 60.7835H36.458C36.8898 60.7835 37.1962 60.3626 37.0635 59.9517C37.0431 59.8885 37.0327 59.8226 37.0327 59.7562Z" fill="#1D5639"/>
<path d="M29.2687 43.416L29.2687 60.7824" stroke="black" stroke-width="1.24046"/>
<path d="M37.3317 43.416V60.7824" stroke="black" stroke-width="1.24046"/>
<path d="M62.1414 39.1797C62.1414 41.3287 48.9513 43.0707 32.6805 43.0707C16.4097 43.0707 3.2196 41.3287 3.2196 39.1797" stroke="black" stroke-width="1.11173"/>
<path d="M3.21948 34.7344L3.21948 39.1813" stroke="black" stroke-width="1.11173"/>
<path d="M62.1415 34.7344L62.1415 39.1813" stroke="black" stroke-width="1.11173"/>
<path d="M54.0782 111.021C54.0782 114.789 44.6369 117.844 32.9904 117.844C21.3439 117.844 11.9026 114.789 11.9026 111.021" stroke="black" stroke-width="1.24046"/>
<path d="M6.63074 40.9355L11.9027 111.332" stroke="black" stroke-width="1.24046"/>
<path d="M59.3502 40.9355L54.0783 111.332" stroke="black" stroke-width="1.24046"/>
<circle cx="19.0353" cy="93.3449" r="3.41126" fill="#2C2B2B"/>
<circle cx="33.921" cy="95.2062" r="3.41126" fill="#2C2B2B"/>
<circle cx="45.0847" cy="97.6867" r="3.41126" fill="#2C2B2B"/>
<circle cx="49.4265" cy="90.2433" r="3.41126" fill="#2C2B2B"/>
<circle cx="17.7947" cy="102.028" r="3.41126" fill="#2C2B2B"/>
<circle cx="26.478" cy="101.407" r="3.41126" fill="#2C2B2B"/>
<circle cx="49.4265" cy="105.749" r="3.41126" fill="#2C2B2B"/>
<circle cx="34.5408" cy="103.888" r="3.41126" fill="#2C2B2B"/>
<circle cx="41.9835" cy="111.952" r="3.41126" fill="#2C2B2B"/>
<circle cx="22.7571" cy="108.853" r="3.41126" fill="#2C2B2B"/>
<circle cx="41.9838" cy="104.509" r="3.41126" fill="#2C2B2B"/>
<circle cx="31.4398" cy="111.333" r="3.41126" fill="#2C2B2B"/>
</svg>
