<svg width="126" height="108" viewBox="0 0 126 108" fill="none" xmlns="http://www.w3.org/2000/svg">
<path d="M63.3967 17.8301V105" stroke="#F0F0F0" stroke-width="5.94343" stroke-linecap="square"/>
<rect x="0.600119" y="0.600119" width="124.625" height="21.6043" rx="10.202" fill="#157267" stroke="#F0F0F0" stroke-width="1.20024"/>
<path d="M16.8076 5.7634H18.5189C19.8629 5.7634 20.6469 6.56825 20.8709 8.17794V9.63135C20.8709 9.71991 20.8293 9.76419 20.7459 9.76419H19.4097C19.3264 9.76419 19.2847 9.71991 19.2847 9.63135V8.17794C19.2065 7.62575 18.9721 7.34965 18.5814 7.34965H16.7451C16.3544 7.34965 16.12 7.62575 16.0419 8.17794V14.648C16.0419 15.1012 16.3388 15.3564 16.9327 15.4137H18.3939C18.9878 15.3564 19.2847 15.1012 19.2847 14.648V13.1242C19.2951 13.0409 19.3368 12.9992 19.4097 12.9992H20.7459C20.8293 13.0148 20.8709 13.0565 20.8709 13.1242V14.4604C20.8709 15.7211 20.2354 16.5468 18.9643 16.9375C18.5319 16.9792 18.1933 17 17.9485 17H17.3781C15.9246 17 15.0156 16.4921 14.651 15.4763C14.5207 15.2002 14.4556 14.8616 14.4556 14.4604V8.24045C14.4556 7.13086 14.9844 6.34685 16.0419 5.88843C16.3388 5.80508 16.594 5.7634 16.8076 5.7634ZM23.5921 5.77903H25.1393V9.60791H25.2174C25.7592 9.17032 26.2489 8.95153 26.6865 8.95153C27.8273 9.20679 28.3977 9.77722 28.3977 10.6628V17.0156H26.8506V11.6396C26.7828 10.9363 26.5119 10.5847 26.0379 10.5847H25.9519C25.4102 10.5847 25.1393 11.0196 25.1393 11.8896V17.0156H23.5921V5.77903ZM33.2678 8.98279H34.4711C35.5964 9.19637 36.159 9.75898 36.159 10.6706V15.32C36.159 16.4452 35.3567 17.0078 33.7522 17.0078H33.5881C32.0931 17.0078 31.3455 16.3384 31.3455 14.9996V10.991C31.3455 9.65219 31.9863 8.98279 33.2678 8.98279ZM33.0333 10.8347V15.1637C33.049 15.2679 33.1011 15.32 33.1896 15.32H34.3148C34.393 15.32 34.4737 15.2418 34.5571 15.0856V11.0691C34.5571 10.7514 34.3956 10.5925 34.0726 10.5925H33.2678C33.1948 10.5925 33.1167 10.6732 33.0333 10.8347ZM41.0524 9.01404H41.6932C43.0737 9.01404 43.7639 9.5454 43.7639 10.6081V16.5233C43.8577 16.7369 43.9645 16.8437 44.0843 16.8437V17H42.8106C42.4355 17 42.248 16.8672 42.248 16.6015H42.0917C42.0917 16.8672 41.9042 17 41.5291 17H40.5758C39.5079 16.8385 38.9739 16.3072 38.9739 15.4059V15.32C38.9739 14.1895 39.9064 13.02 41.7713 11.8115L42.1698 11.327V11.1707C42.1698 10.8946 42.0891 10.7357 41.9276 10.6941H40.8102C40.6643 10.6941 40.5575 10.9597 40.4898 11.4911H39.138C39.0286 11.4911 38.9739 11.4364 38.9739 11.327V10.6081C38.9739 9.5454 39.6667 9.01404 41.0524 9.01404ZM40.5758 14.9215C40.5758 15.2444 40.7347 15.4059 41.0524 15.4059H41.6932C42.011 15.4059 42.1698 15.2444 42.1698 14.9215V13.0852H42.0917C41.0811 13.7988 40.5758 14.4109 40.5758 14.9215ZM55.2465 5.7634H56.9578C58.3018 5.7634 59.0858 6.56825 59.3098 8.17794V9.63135C59.3098 9.71991 59.2681 9.76419 59.1848 9.76419H57.8486C57.7652 9.76419 57.7235 9.71991 57.7235 9.63135V8.17794C57.6454 7.62575 57.411 7.34965 57.0203 7.34965H55.184C54.7933 7.34965 54.5589 7.62575 54.4807 8.17794V14.648C54.4807 15.1012 54.7776 15.3564 55.3715 15.4137H56.8327C57.4266 15.3564 57.7235 15.1012 57.7235 14.648V13.1242C57.734 13.0409 57.7756 12.9992 57.8486 12.9992H59.1848C59.2681 13.0148 59.3098 13.0565 59.3098 13.1242V14.4604C59.3098 15.7211 58.6743 16.5468 57.4032 16.9375C56.9708 16.9792 56.6322 17 56.3873 17H55.8169C54.3635 17 53.4545 16.4921 53.0898 15.4763C52.9596 15.2002 52.8945 14.8616 52.8945 14.4604V8.24045C52.8945 7.13086 53.4232 6.34685 54.4807 5.88843C54.7776 5.80508 55.0329 5.7634 55.2465 5.7634ZM62.031 5.77903H63.5781V9.60791H63.6563C64.1981 9.17032 64.6877 8.95153 65.1253 8.95153C66.2662 9.20679 66.8366 9.77722 66.8366 10.6628V17.0156H65.2894V11.6396C65.2217 10.9363 64.9508 10.5847 64.4768 10.5847H64.3908C63.849 10.5847 63.5781 11.0196 63.5781 11.8896V17.0156H62.031V5.77903ZM69.7375 8.98279H71.3784V14.648C71.3784 15.023 71.6259 15.2965 72.1208 15.4684C72.6886 15.4684 72.9881 15.1403 73.0194 14.4839V8.98279H74.5822V17.0313H73.0194V16.453H72.9412C72.4151 16.8385 72.0322 17.0313 71.7926 17.0313H71.3784C70.4095 17.0313 69.8625 16.3749 69.7375 15.0621V8.98279ZM83.6424 5.7087H85.2443V10.3502H85.3928C86.867 7.25588 87.6536 5.7087 87.7526 5.7087H89.1982C89.1982 5.8181 88.4116 7.69607 86.8384 11.3426C88.4116 14.9892 89.1982 16.8672 89.1982 16.9766H87.6042L85.3928 12.4053H85.2443V16.9766H83.6424V5.7087ZM93.9979 9.01404H94.6387C96.0191 9.01404 96.7094 9.5454 96.7094 10.6081V16.5233C96.8032 16.7369 96.91 16.8437 97.0298 16.8437V17H95.7561C95.381 17 95.1935 16.8672 95.1935 16.6015H95.0372C95.0372 16.8672 94.8496 17 94.4746 17H93.5213C92.4533 16.8385 91.9194 16.3072 91.9194 15.4059V15.32C91.9194 14.1895 92.8519 13.02 94.7168 11.8115L95.1153 11.327V11.1707C95.1153 10.8946 95.0346 10.7357 94.8731 10.6941H93.7557C93.6098 10.6941 93.503 10.9597 93.4353 11.4911H92.0835C91.9741 11.4911 91.9194 11.4364 91.9194 11.327V10.6081C91.9194 9.5454 92.6122 9.01404 93.9979 9.01404ZM93.5213 14.9215C93.5213 15.2444 93.6801 15.4059 93.9979 15.4059H94.6387C94.9564 15.4059 95.1153 15.2444 95.1153 14.9215V13.0852H95.0372C94.0266 13.7988 93.5213 14.4109 93.5213 14.9215ZM100.032 8.98279H101.322C101.426 8.98279 101.478 9.19898 101.478 9.63135C101.968 9.19898 102.449 8.98279 102.923 8.98279C103.981 8.98279 104.57 9.62614 104.689 10.9129V16.8515C104.689 16.9557 104.635 17.0078 104.525 17.0078H103.244C103.14 17.0078 103.088 16.9557 103.088 16.8515V11.6317C103.02 10.9389 102.752 10.5925 102.283 10.5925C101.803 10.5925 101.535 10.9129 101.478 11.5536V16.8515C101.478 16.9557 101.426 17.0078 101.322 17.0078H100.032C99.928 17.0078 99.876 16.9557 99.876 16.8515V9.14688C99.8916 9.03749 99.9437 8.98279 100.032 8.98279ZM109.552 8.98279C109.875 8.98279 110.304 9.19898 110.841 9.63135C110.841 9.19898 110.893 8.98279 110.997 8.98279H112.279C112.388 9.00363 112.443 9.05832 112.443 9.14688V17.9689C112.094 19.4119 111.372 20.1334 110.278 20.1334H109.794C108.814 20.1334 108.093 19.4666 107.629 18.133V17.8127L107.793 17.7267H109.153C109.434 18.2424 109.703 18.5107 109.958 18.5316H110.114C110.526 18.5316 110.768 18.2112 110.841 17.5704V16.2889C110.445 16.6953 109.963 16.9349 109.395 17.0078C108.374 17.0078 107.786 16.3384 107.629 14.9996V10.7488C107.629 9.7121 108.27 9.12344 109.552 8.98279ZM109.231 14.1166C109.289 14.9189 109.476 15.32 109.794 15.32H110.114C110.526 15.32 110.768 15.0543 110.841 14.5229V11.5536C110.804 10.9129 110.51 10.5925 109.958 10.5925C109.473 10.7019 109.231 11.103 109.231 11.7958V14.1166Z" fill="#FFFDFD"/>
</svg>
