<svg width="347" height="138" viewBox="0 0 347 138" fill="none" xmlns="http://www.w3.org/2000/svg">
<path d="M-35.416 38.2311L-11.0432 24.6386C-10.9704 24.5979 -10.902 24.5576 -10.8301 24.5152C-9.71899 23.8604 0.144196 18.365 10.6708 23.0941C18.9402 26.8092 23.0325 32.4059 27.1368 39.6248C33.2735 50.4185 28.2059 63.0484 36.3331 70.9828C42.6478 77.1478 48.9663 79.771 58.2028 79.9878C67.4878 80.2057 76.6228 75.6302 79.0773 73.6164C92.9655 62.222 86.4795 47.6953 99.1227 37.6244C108.326 30.2932 115.865 30.1085 127.144 32.1423C140.481 34.5472 149.874 40.6331 154.481 51.8015C160.518 66.4362 152.427 74.989 159.087 88.4524C164.988 100.382 168.261 101.898 178.018 104.878C189.762 108.465 197.799 103.918 207.95 98.6032C218.527 93.0652 221.444 87.4248 233.513 88.1488C243.26 88.7334 249.699 90.0061 257.471 95.5053C270.559 104.767 274.643 115.358 284.136 120.081C290.348 123.173 294.111 125.046 301.065 125.978C307.879 126.891 311.747 125.785 318.412 124.822C331.683 122.906 336.909 114.701 350.512 114.834C363.715 114.962 382.994 124.853 382.994 124.853" stroke="#DBBA39" stroke-width="21.016" stroke-linecap="round"/>
<path d="M-35.416 38.2311L-11.0432 24.6386C-10.9704 24.5979 -10.902 24.5576 -10.8301 24.5152C-9.71899 23.8604 0.144196 18.365 10.6708 23.0941C18.9402 26.8092 23.0325 32.4059 27.1368 39.6248C33.2735 50.4185 28.2059 63.0484 36.3331 70.9828C42.6478 77.1478 48.9663 79.771 58.2028 79.9878C67.4878 80.2057 76.6228 75.6302 79.0773 73.6164C92.9655 62.222 86.4795 47.6953 99.1227 37.6244C108.326 30.2932 115.865 30.1085 127.144 32.1423C140.481 34.5472 149.874 40.6331 154.481 51.8015C160.518 66.4362 152.427 74.989 159.087 88.4524C164.988 100.382 168.261 101.898 178.018 104.878C189.762 108.465 197.799 103.918 207.95 98.6032C218.527 93.0652 221.444 87.4248 233.513 88.1488C243.26 88.7334 249.699 90.0061 257.471 95.5053C270.559 104.767 274.643 115.358 284.136 120.081C290.348 123.173 294.111 125.046 301.065 125.978C307.879 126.891 311.747 125.785 318.412 124.822C331.683 122.906 336.909 114.701 350.512 114.834C363.715 114.962 382.994 124.853 382.994 124.853" stroke="#33342F" stroke-width="17.608" stroke-linecap="round"/>
<path d="M-35.416 38.2311L-11.0432 24.6386C-10.9704 24.5979 -10.902 24.5576 -10.8301 24.5152C-9.71899 23.8604 0.144196 18.365 10.6708 23.0941C18.9402 26.8092 23.0325 32.4059 27.1368 39.6248C33.2735 50.4185 28.2059 63.0485 36.3331 70.9828C42.6478 77.1478 48.9663 79.771 58.2028 79.9878C67.4878 80.2057 76.6228 75.6302 79.0773 73.6164C92.9655 62.222 86.4795 47.6953 99.1227 37.6244C108.326 30.2932 115.865 30.1085 127.144 32.1423C140.481 34.5472 149.874 40.6331 154.481 51.8015C160.518 66.4362 152.427 74.989 159.087 88.4524C164.988 100.382 168.261 101.898 178.018 104.878C189.762 108.465 197.799 103.918 207.95 98.6032C218.527 93.0652 221.444 87.4248 233.513 88.1488C243.261 88.7334 249.699 90.0061 257.471 95.5053C270.559 104.767 274.643 115.358 284.136 120.081C290.348 123.173 294.111 125.046 301.065 125.978C307.879 126.891 311.747 125.785 318.412 124.822C331.683 122.906 336.909 114.701 350.512 114.834C363.715 114.962 382.994 124.853 382.994 124.853" stroke="#E6E6E6" stroke-width="1.704" stroke-linecap="round" stroke-dasharray="11.36 11.36"/>
</svg>
