<svg width="48" height="44" viewBox="0 0 48 44" fill="none" xmlns="http://www.w3.org/2000/svg">
<path d="M23.7908 8.44141V42.2091" stroke="#F0F0F0" stroke-width="2.30235" stroke-linecap="square"/>
<rect x="0.228935" y="0.228935" width="47.5421" height="8.24165" rx="3.89189" fill="#157267" stroke="#F0F0F0" stroke-width="0.45787"/>
<path d="M11.228 1.93424H13.0642V2.53937H12.4829C12.4571 2.53937 12.4422 2.55427 12.4382 2.58408V6.21186H11.8331V2.58408C11.8331 2.55825 11.8172 2.54334 11.7854 2.53937H11.228V1.93424ZM14.9608 3.15642H15.4199C15.8491 3.2379 16.0637 3.45252 16.0637 3.8003V5.57395C16.0637 6.0032 15.7577 6.21782 15.1456 6.21782H15.083C14.5127 6.21782 14.2275 5.96246 14.2275 5.45173V3.92251C14.2275 3.41178 14.4719 3.15642 14.9608 3.15642ZM14.8714 3.8629V5.51433C14.8773 5.55407 14.8972 5.57395 14.931 5.57395H15.3602C15.3901 5.57395 15.4209 5.54414 15.4527 5.48452V3.95232C15.4527 3.8311 15.391 3.77049 15.2678 3.77049H14.9608C14.933 3.77049 14.9032 3.80129 14.8714 3.8629ZM17.9305 3.16834H18.175C18.7016 3.16834 18.9649 3.37104 18.9649 3.77645V6.03301C19.0007 6.11449 19.0414 6.15523 19.0871 6.15523V6.21484H18.6012C18.4581 6.21484 18.3866 6.16417 18.3866 6.06282H18.327C18.327 6.16417 18.2554 6.21484 18.1124 6.21484H17.7487C17.3413 6.15324 17.1376 5.95054 17.1376 5.60674V5.57395C17.1376 5.14271 17.4933 4.69656 18.2048 4.23551L18.3568 4.05069V3.99108C18.3568 3.88575 18.326 3.82514 18.2644 3.80924H17.8381C17.7825 3.80924 17.7417 3.91059 17.7159 4.11329H17.2002C17.1585 4.11329 17.1376 4.09243 17.1376 4.05069V3.77645C17.1376 3.37104 17.4019 3.16834 17.9305 3.16834ZM17.7487 5.42192C17.7487 5.54513 17.8093 5.60674 17.9305 5.60674H18.175C18.2962 5.60674 18.3568 5.54513 18.3568 5.42192V4.7214H18.327C17.9414 4.99366 17.7487 5.22716 17.7487 5.42192ZM22.5226 1.93424H23.7507C24.2396 1.93424 24.5267 2.26214 24.6122 2.91794V3.65721C24.6122 4.11031 24.4274 4.42728 24.0577 4.60813C23.9246 4.64986 23.8322 4.67073 23.7805 4.67073H23.074V6.14628C23.074 6.18603 23.0542 6.2059 23.0144 6.2059H22.5226C22.4808 6.2059 22.46 6.18603 22.46 6.14628V1.99684C22.4659 1.95511 22.4868 1.93424 22.5226 1.93424ZM23.074 2.54831V4.05666H23.6911C23.8024 4.05666 23.8938 3.99505 23.9653 3.87184V2.82554C23.9653 2.64072 23.8531 2.54831 23.6285 2.54831H23.074ZM26.5058 3.16834H26.7502C27.2769 3.16834 27.5402 3.37104 27.5402 3.77645V6.03301C27.5759 6.11449 27.6167 6.15523 27.6624 6.15523V6.21484H27.1765C27.0334 6.21484 26.9619 6.16417 26.9619 6.06282H26.9023C26.9023 6.16417 26.8307 6.21484 26.6876 6.21484H26.324C25.9166 6.15324 25.7129 5.95054 25.7129 5.60674V5.57395C25.7129 5.14271 26.0686 4.69656 26.78 4.23551L26.9321 4.05069V3.99108C26.9321 3.88575 26.9013 3.82514 26.8397 3.80924H26.4134C26.3577 3.80924 26.317 3.91059 26.2912 4.11329H25.7755C25.7337 4.11329 25.7129 4.09243 25.7129 4.05069V3.77645C25.7129 3.37104 25.9772 3.16834 26.5058 3.16834ZM26.324 5.42192C26.324 5.54513 26.3846 5.60674 26.5058 5.60674H26.7502C26.8715 5.60674 26.9321 5.54513 26.9321 5.42192V4.7214H26.9023C26.5167 4.99366 26.324 5.22716 26.324 5.42192ZM28.7392 3.15642H29.2907C29.3384 3.19815 29.5013 3.78042 29.7796 4.90324H29.8094C30.0697 3.73869 30.2227 3.15642 30.2684 3.15642H30.7901L30.8497 3.18921C30.2376 5.69716 29.8908 7.02267 29.8094 7.16576C29.6345 7.32871 29.4616 7.41019 29.2907 7.41019H28.769C28.7293 7.41019 28.7094 7.39032 28.7094 7.35058V6.8617C28.7154 6.81997 28.7352 6.7991 28.769 6.7991H29.2579C29.3294 6.7991 29.401 6.59541 29.4725 6.18802C28.9837 4.27426 28.7392 3.26373 28.7392 3.15642ZM32.6897 3.15642H33.1487C33.578 3.2379 33.7926 3.45252 33.7926 3.8003V5.57395C33.7926 6.0032 33.4866 6.21782 32.8745 6.21782H32.8119C32.2415 6.21782 31.9563 5.96246 31.9563 5.45173V3.92251C31.9563 3.41178 32.2008 3.15642 32.6897 3.15642ZM32.6002 3.8629V5.51433C32.6062 5.55407 32.6261 5.57395 32.6598 5.57395H33.0891C33.1189 5.57395 33.1497 5.54414 33.1815 5.48452V3.95232C33.1815 3.8311 33.1199 3.77049 32.9967 3.77049H32.6897C32.6618 3.77049 32.632 3.80129 32.6002 3.8629ZM34.8724 1.93424H35.4626V3.39489H35.4924C35.6991 3.22796 35.8859 3.14449 36.0529 3.14449C36.4881 3.24187 36.7057 3.45948 36.7057 3.79732V6.22081H36.1155V4.16993C36.0896 3.90165 35.9863 3.76751 35.8054 3.76751H35.7726C35.566 3.76751 35.4626 3.93344 35.4626 4.26532V6.22081H34.8724V1.93424Z" fill="#FFFDFD"/>
</svg>
